<svg width="281" height="364" viewBox="0 0 281 364" fill="none" xmlns="http://www.w3.org/2000/svg">
<path fill-rule="evenodd" clip-rule="evenodd" d="M161.316 65.7927C165.498 60.8836 168.328 54.8676 167.855 48.1264C166.492 28.7031 139.455 32.976 134.195 42.7792C128.936 52.5824 129.561 77.449 136.358 79.2011C139.069 79.8998 144.844 78.1882 150.721 74.6457L147.032 100.745H168.814L161.316 65.7927Z" fill="#B28B67"/>
<path fill-rule="evenodd" clip-rule="evenodd" d="M146.612 31.4806C149.482 31.0098 157.212 30.6862 158.638 30.6864C159.549 30.6864 160.536 30.8945 161.076 30.058C161.518 29.373 161.356 28.2145 161.488 27.4197C161.641 26.4962 161.858 25.5847 162.078 24.6755C162.704 22.0884 163.651 19.627 164.975 17.3161C167.461 12.9805 171.102 9.58444 175.698 7.60828C180.774 5.42629 186.517 4.92666 191.977 5.36924C197.82 5.84275 203.109 7.77148 208.625 9.58653C213.882 11.3161 219.388 11.9969 224.886 11.1523C230.425 10.3014 234.611 7.29902 239.283 4.44939C244.066 1.53205 249.533 -0.37599 255.188 0.0626236C260.466 0.472191 265.331 2.65168 269.696 5.56316C273.779 8.2872 277.149 11.5646 279.051 16.1772C281.098 21.1391 281.096 26.5855 277.731 30.9706C272.853 37.3268 263.797 38.9705 256.262 38.8071C251.905 38.7129 247.625 37.9173 243.51 36.4703C238.023 34.5403 233.282 31.2692 228.148 28.6151C225.739 27.3697 223.249 26.3468 220.639 25.61C218.106 24.8948 215.612 24.5667 213.319 26.0967C210.893 27.7153 208.719 29.3053 205.944 30.3186C203.281 31.2907 200.461 31.8344 197.625 31.8125C192.106 31.7698 186.665 30.0503 181.305 28.8985C176.934 27.9594 172.257 27.0235 167.801 27.9262C165.942 28.3029 163.226 29.0807 162.554 31.0132C173.858 33.0619 178.297 47.0415 175.111 57.3039C173.391 62.8429 163.052 69.3179 159.032 66.406C156.486 64.5612 158.032 62.1393 159.032 60.5405C160.949 57.4788 161.604 53.5459 158.058 51.4143C155 49.5758 151.784 53.9416 151.724 53.9368C150.883 53.8706 143.62 49.7629 138.615 43.7686C133.679 44.0613 132.93 40.8061 134.108 38.144C135.287 35.4819 142.645 32.1316 146.612 31.4806Z" fill="#191847"/>
<path d="M197.89 364C159.293 364 128.004 334.133 128.004 297.291C128.004 260.448 159.293 230.582 197.89 230.582C236.486 230.582 267.775 260.448 267.775 297.291C267.775 334.133 236.486 364 197.89 364Z" fill="#C5CFD6"/>
<path fill-rule="evenodd" clip-rule="evenodd" d="M45.8241 323.708C57.4531 297.969 65.863 275.558 69.2387 263.733C75.0188 243.487 79.416 225.671 80.5273 219.018C83.1775 203.152 60.1407 202.228 57.0957 210.113C52.487 222.047 44.4412 261.258 34.7736 320.483L45.8241 323.708ZM180.714 242.934C170.044 238.716 132.68 225.518 114.659 221.784C109.48 220.711 104.461 219.715 99.7425 218.814C85.7164 216.136 78.4496 241.44 91.9584 243.384C125.601 248.226 173.294 253.226 177.376 253.787C183.096 254.573 187.419 245.584 180.714 242.934Z" fill="#B28B67"/>
<path fill-rule="evenodd" clip-rule="evenodd" d="M91.1354 211.851L148.848 182.472V176.076H141.984C86.1502 190.304 57.619 199.421 56.3908 203.429C56.3776 203.473 56.3655 203.516 56.3544 203.559C56.3263 203.596 56.2987 203.633 56.2716 203.67C45.2065 218.888 38.5796 293.182 36.4046 298.745L57.6078 301.908C65.7186 271.832 91.6683 250.879 90.979 214.857C91.1651 213.801 91.2121 212.799 91.1354 211.851Z" fill="#1F28CF"/>
<path fill-rule="evenodd" clip-rule="evenodd" d="M144.05 229.299C149.331 228.242 154.193 227.298 158.354 226.568C185.232 221.854 193.069 207.467 188.435 176.076H138.914C130.825 178.4 88.785 196.03 66.9728 205.407C52.5364 211.613 57.0872 233.986 65.2626 239.808C65.3069 240.165 65.4541 240.408 65.7161 240.516C109.694 258.743 144.484 249.18 156.106 252.235L161.482 235.278L144.05 229.299Z" fill="#2B44FF"/>
<path fill-rule="evenodd" clip-rule="evenodd" d="M177.067 240.238C179.948 240.514 181.994 240.947 183.203 241.537C184.674 242.254 186.701 243.546 189.285 245.413C188.452 247.119 180.972 262.456 166.844 291.423C162.308 290.69 160.511 288.959 161.452 286.23C162.393 283.5 163.152 281.221 163.73 279.393L164.626 253.359C164.643 252.858 165.064 252.466 165.564 252.483C165.573 252.483 165.582 252.484 165.59 252.484L169.595 252.736C171.871 250.894 173.372 249.227 174.099 247.736C174.69 246.525 175.017 244.613 175.08 242.002L175.08 242.002C175.104 241 175.936 240.207 176.938 240.231C176.981 240.232 177.024 240.234 177.067 240.238Z" fill="#E4E4E4"/>
<path fill-rule="evenodd" clip-rule="evenodd" d="M51.1175 318.935C52.1329 321.646 52.6406 323.674 52.6406 325.02C52.6406 326.656 52.368 329.045 51.8226 332.185C49.924 332.185 32.8604 332.185 0.631875 332.185C-0.698392 327.787 0.0695139 325.413 2.9356 325.062C5.80168 324.711 8.18258 324.395 10.0783 324.112L33.8713 313.505C34.3291 313.301 34.8657 313.507 35.0698 313.965C35.0733 313.972 35.0767 313.98 35.0799 313.988L36.6093 317.698C39.2626 318.936 41.4186 319.555 43.0774 319.555C44.4252 319.555 46.2865 319.011 48.6612 317.922L48.6612 317.922C49.5726 317.504 50.65 317.904 51.0678 318.816C51.0858 318.855 51.1024 318.895 51.1175 318.935Z" fill="#E4E4E4"/>
<path fill-rule="evenodd" clip-rule="evenodd" d="M92.5755 151.223L59.6887 136.78C53.9277 131.04 48.3646 126.676 42.9995 123.691C41.3952 123.18 38.6544 123.026 41.5786 127.297C44.5029 131.568 47.3867 136.192 46.2182 137.689C45.0498 139.186 41.665 137.534 40.3278 139.968C39.4363 141.591 45.1418 143.532 57.4442 145.792L82.0745 164.676L92.5755 151.223ZM225.533 155.201L206.934 158.891C225.638 193.748 235.669 212.222 237.026 214.314C240.08 219.02 237.23 227.644 236.178 232.186C242.781 233.723 240.177 223.785 248.532 225.86C256.159 227.753 262.626 232.614 269.737 226.059C270.612 225.253 271.252 222.734 268.271 221.442C260.844 218.223 249.871 212.196 248.092 209.856C245.666 206.665 238.146 188.446 225.533 155.201Z" fill="#B28B67"/>
<path fill-rule="evenodd" clip-rule="evenodd" d="M156.385 85.6166L148.537 84.2704C131.443 100.853 124.467 140.691 113.075 145.964C102.305 150.95 87.0364 146.125 68.8876 139.611L63.3297 152.029C79.8196 169.869 114.949 184.941 129.189 176.336C151.955 162.58 157.211 113.445 156.385 85.6166Z" fill="#D44747"/>
<path fill-rule="evenodd" clip-rule="evenodd" d="M190.598 184.245C159.129 184.245 135.982 184.245 121.155 184.245C117.982 184.245 118.58 179.663 119.039 177.351C124.333 150.666 144.998 121.902 144.998 83.9182L165.029 80.7772C181.596 107.423 187.326 140.23 190.598 184.245Z" fill="#DDE3E9"/>
<path fill-rule="evenodd" clip-rule="evenodd" d="M197.524 157.228C211.68 182.763 223.58 201.147 233.222 212.38L247.777 209.53C238.401 151.381 211.249 108.463 166.321 80.7772H162.706L158.39 80.7772C140.408 142.074 135.451 182.917 143.518 203.304H206.027C205.038 188.386 201.867 172.61 197.524 157.228H197.524Z" fill="#FF5151"/>
</svg>
