<svg width="131" height="25" viewBox="0 0 131 25" fill="none" xmlns="http://www.w3.org/2000/svg">
<path d="M6.78516 12.7306C14.7852 23.2305 31.7852 27.7305 56.2852 11.7306" stroke="#FF5151" stroke-width="4" stroke-linecap="round"/>
<path d="M0 11.918C0 13.707 0.464844 15.1641 1.39453 16.2891C2.33203 17.4062 3.625 17.9648 5.27344 17.9648C6.03125 17.9648 6.70312 17.8086 7.28906 17.4961C7.875 17.1836 8.30078 16.793 8.56641 16.3242H8.60156L8.66016 17.7305H12.6445V0H8.53125V6.92578C8.23438 6.49609 7.80469 6.15234 7.24219 5.89453C6.67969 5.62891 6.01953 5.49609 5.26172 5.49609C3.70703 5.49609 2.44141 6.05469 1.46484 7.17188C0.488281 8.28906 0 9.74609 0 11.543V11.918ZM4.21875 12.0703V11.3906C4.21875 10.5078 4.41016 9.80078 4.79297 9.26953C5.17578 8.73828 5.72266 8.47266 6.43359 8.47266C6.97266 8.47266 7.41016 8.60938 7.74609 8.88281C8.08203 9.14844 8.33203 9.48047 8.49609 9.87891V13.5586C8.32422 13.957 8.0625 14.293 7.71094 14.5664C7.35938 14.8398 6.92969 14.9766 6.42188 14.9766C5.70312 14.9766 5.15625 14.7148 4.78125 14.1914C4.40625 13.6602 4.21875 12.9531 4.21875 12.0703Z" fill="black"/>
<path d="M14.6719 11.8945C14.6719 13.7852 15.2578 15.2891 16.4297 16.4062C17.6094 17.5156 19.2188 18.0703 21.2578 18.0703C22.6406 18.0703 23.8125 17.8203 24.7734 17.3203C25.7344 16.8125 26.4102 16.1211 26.8008 15.2461L23.6719 13.6875C23.4219 14.0703 23.0898 14.4062 22.6758 14.6953C22.2617 14.9844 21.7656 15.1289 21.1875 15.1289C20.4062 15.1289 19.8086 14.8672 19.3945 14.3438C18.9883 13.8203 18.7852 13.0703 18.7852 12.0938V11.25C18.7852 10.2891 18.9727 9.54688 19.3477 9.02344C19.7305 8.5 20.2773 8.23828 20.9883 8.23828C21.6211 8.23828 22.1094 8.42969 22.4531 8.8125C22.7969 9.19531 22.9648 9.66797 22.957 10.2305V10.4531H17.3555V12.6094H27.0117V11.3438C27.0117 9.47656 26.4805 8.01562 25.418 6.96094C24.3555 5.89844 22.8945 5.36719 21.0352 5.36719C19.168 5.36719 17.6406 5.92578 16.4531 7.04297C15.2656 8.16016 14.6719 9.65234 14.6719 11.5195V11.8945Z" fill="black"/>
<path d="M28.2188 13.8398V14.0039C28.2344 15.3242 28.7539 16.332 29.7773 17.0273C30.8008 17.7227 32.2305 18.0703 34.0664 18.0703C35.9258 18.0703 37.3477 17.7227 38.332 17.0273C39.3164 16.3242 39.8086 15.3281 39.8086 14.0391C39.8086 13 39.4688 12.1875 38.7891 11.6016C38.1094 11.0078 37.0234 10.5742 35.5312 10.3008C34.2031 10.0586 33.375 9.84766 33.0469 9.66797C32.7188 9.48828 32.5547 9.24609 32.5547 8.94141C32.5547 8.63672 32.6719 8.40234 32.9062 8.23828C33.1406 8.06641 33.5234 7.98047 34.0547 7.98047C34.6016 7.98047 35.0078 8.09375 35.2734 8.32031C35.5469 8.53906 35.6836 8.85938 35.6836 9.28125V9.50391H39.6211V9.32812C39.6211 8.09375 39.1211 7.125 38.1211 6.42188C37.1289 5.71875 35.7891 5.36719 34.1016 5.36719C32.3984 5.36719 31.0508 5.70312 30.0586 6.375C29.0742 7.03906 28.582 7.97656 28.582 9.1875C28.582 10.1719 28.9023 10.9766 29.543 11.6016C30.1836 12.2188 31.2539 12.668 32.7539 12.9492C34.0664 13.207 34.8867 13.4219 35.2148 13.5938C35.5508 13.7578 35.7188 14.0156 35.7188 14.3672C35.7188 14.7188 35.5781 14.9961 35.2969 15.1992C35.0234 15.4023 34.5977 15.5039 34.0195 15.5039C33.4492 15.5039 32.9961 15.3984 32.6602 15.1875C32.332 14.9688 32.168 14.6055 32.168 14.0977V13.875L28.2188 13.8398Z" fill="black"/>
<path d="M41.8945 17.7305H46.0664V5.73047H41.8945V17.7305ZM41.6133 2.30859C41.6133 2.91797 41.8164 3.42969 42.2227 3.84375C42.6289 4.25781 43.2109 4.46484 43.9688 4.46484C44.7344 4.46484 45.3203 4.25781 45.7266 3.84375C46.1406 3.42969 46.3477 2.91797 46.3477 2.30859C46.3477 1.70703 46.1445 1.20312 45.7383 0.796875C45.332 0.382812 44.7461 0.175781 43.9805 0.175781C43.2148 0.175781 42.6289 0.382812 42.2227 0.796875C41.8164 1.20312 41.6133 1.70703 41.6133 2.30859Z" fill="black"/>
<path d="M48.8906 21.3164C49.4844 21.7617 50.2422 22.1328 51.1641 22.4297C52.0938 22.7344 53.1367 22.8867 54.293 22.8867C56.1602 22.8867 57.6953 22.3477 58.8984 21.2695C60.1094 20.1992 60.7148 18.6602 60.7148 16.6523V5.73047H56.707L56.6602 7.10156H56.6016C56.3438 6.625 55.9062 6.23828 55.2891 5.94141C54.6719 5.64453 53.9961 5.49609 53.2617 5.49609C51.6992 5.49609 50.4492 6.04688 49.5117 7.14844C48.582 8.24219 48.1172 9.70703 48.1172 11.543V11.918C48.1172 13.7461 48.5898 15.207 49.5352 16.3008C50.4883 17.3945 51.7344 17.9414 53.2734 17.9414C54.0781 17.9414 54.7578 17.8125 55.3125 17.5547C55.875 17.2891 56.3086 16.9219 56.6133 16.4531V16.9805C56.6133 18.0195 56.3555 18.7734 55.8398 19.2422C55.3242 19.7188 54.6719 19.957 53.8828 19.957C53.1094 19.957 52.3828 19.8281 51.7031 19.5703C51.0234 19.3203 50.543 19.0703 50.2617 18.8203L48.8906 21.3164ZM52.3125 12.0703V11.3906C52.3125 10.5078 52.4961 9.80078 52.8633 9.26953C53.2383 8.73828 53.7891 8.47266 54.5156 8.47266C55.0234 8.47266 55.4531 8.61328 55.8047 8.89453C56.1641 9.17578 56.4258 9.54688 56.5898 10.0078V13.5117C56.4414 13.8945 56.1914 14.2344 55.8398 14.5312C55.4883 14.8281 55.0664 14.9766 54.5742 14.9766C53.8164 14.9766 53.25 14.7148 52.875 14.1914C52.5 13.6602 52.3125 12.9531 52.3125 12.0703Z" fill="black"/>
<path d="M63.3398 17.7305H67.4883V9.96094C67.668 9.50781 67.9375 9.16406 68.2969 8.92969C68.6641 8.6875 69.0508 8.56641 69.457 8.56641C69.957 8.56641 70.3438 8.69531 70.6172 8.95312C70.8906 9.21094 71.0273 9.66016 71.0273 10.3008V17.7305H75.1758V10.1953C75.1758 8.4375 74.7773 7.21094 73.9805 6.51562C73.1836 5.8125 72.1602 5.46094 70.9102 5.46094C70.1211 5.46094 69.4141 5.61719 68.7891 5.92969C68.1719 6.23438 67.7266 6.61719 67.4531 7.07812H67.4062L67.3477 5.73047H63.3398V17.7305Z" fill="black"/>
<path d="M123.785 11.7305C119.749 13.1549 85.7852 -5.26956 56.2852 11.7304" stroke="#FF5151" stroke-width="4" stroke-linecap="round"/>
<path d="M89.2852 17.7305H93.4336V10.0781C93.5898 9.58594 93.8203 9.21094 94.125 8.95312C94.4375 8.69531 94.8203 8.56641 95.2734 8.56641C95.7656 8.56641 96.1602 8.71094 96.457 9C96.7617 9.28125 96.9141 9.76562 96.9141 10.4531V17.7305L101.062 17.7305V10.0195C101.062 8.41797 100.688 7.25781 99.9375 6.53906C99.1875 5.82031 98.2383 5.46094 97.0898 5.46094C96.1523 5.46094 95.3867 5.64062 94.793 6C94.1992 6.35156 93.7422 6.79687 93.4219 7.33594V0L89.2852 0V17.7305Z" fill="black"/>
<path d="M103.547 13.0781C103.547 14.8359 103.938 16.0937 104.719 16.8516C105.508 17.6094 106.504 17.9883 107.707 17.9883C108.52 17.9883 109.234 17.8437 109.852 17.5547C110.477 17.2578 110.949 16.8633 111.27 16.3711H111.316L111.375 17.7305H115.383V5.73047L111.234 5.73047V13.5117C111.062 13.9102 110.801 14.2461 110.449 14.5195C110.105 14.7852 109.711 14.918 109.266 14.918C108.789 14.918 108.406 14.7812 108.117 14.5078C107.836 14.2344 107.695 13.7305 107.695 12.9961V5.73047H103.547V13.0781Z" fill="black"/>
<path d="M117.996 17.7305H121.992L122.039 16.4531H122.098C122.355 16.9141 122.801 17.2812 123.434 17.5547C124.074 17.8281 124.77 17.9648 125.52 17.9648C127.059 17.9648 128.293 17.4023 129.223 16.2773C130.16 15.1445 130.629 13.6758 130.629 11.8711V11.4961C130.629 9.70703 130.168 8.25391 129.246 7.13672C128.324 6.01953 127.09 5.46094 125.543 5.46094C124.801 5.46094 124.145 5.59375 123.574 5.85937C123.004 6.11719 122.523 6.48437 122.133 6.96094V0L117.996 0V17.7305ZM122.133 13.4414V10.0078C122.281 9.60937 122.535 9.25781 122.895 8.95312C123.254 8.64062 123.707 8.48437 124.254 8.48437C124.996 8.48437 125.539 8.74609 125.883 9.26953C126.227 9.79297 126.398 10.4922 126.398 11.3672V12.0469C126.398 12.9297 126.223 13.6406 125.871 14.1797C125.527 14.7109 125 14.9766 124.289 14.9766C123.711 14.9766 123.242 14.8242 122.883 14.5195C122.531 14.207 122.281 13.8477 122.133 13.4414Z" fill="black"/>
</svg>
