<svg width="246" height="282" viewBox="0 0 246 282" fill="none" xmlns="http://www.w3.org/2000/svg">
<path fill-rule="evenodd" clip-rule="evenodd" d="M76.3625 35.603C72.507 31.0773 69.8974 25.531 70.3335 19.3162C71.5899 1.4097 96.5164 5.3489 101.365 14.3866C106.214 23.4242 105.638 46.3491 99.3711 47.9643C96.872 48.6085 91.5482 47.0305 86.1298 43.7646L89.5309 67.8255H69.4492L76.3625 35.603Z" fill="#915B3C"/>
<path fill-rule="evenodd" clip-rule="evenodd" d="M74.8188 39.6338C72.2983 28.4207 65.118 20.7771 66.2146 15.7653C66.9457 12.4241 68.8942 10.3463 72.0602 9.53197C73.6976 2.90785 78.9786 0.0903553 87.9032 1.07948C101.29 2.56317 109.461 8.1226 105.932 20.3558C102.689 20.3558 98.7731 19.1828 93.3586 21.1925C91.6407 21.8302 90.4119 23.8077 89.6724 27.125H87.2256C84.8509 23.1883 82.5094 21.7416 80.2012 22.7851C77.893 23.8285 77.3683 26.3631 78.6271 30.3888L77.4218 39.6338H74.8188Z" fill="#191847"/>
<path fill-rule="evenodd" clip-rule="evenodd" d="M13.3878 172.417H109.612C117.006 172.417 123 178.411 123 185.805V262.785C123 270.179 117.006 276.172 109.612 276.172H13.3878C5.9939 276.172 0 270.179 0 262.785V185.805C0 178.411 5.9939 172.417 13.3878 172.417ZM26.7755 195.846C24.927 195.846 23.4286 197.344 23.4286 199.193V249.397C23.4286 251.245 24.927 252.744 26.7755 252.744H96.2245C98.073 252.744 99.5714 251.245 99.5714 249.397V199.193C99.5714 197.344 98.073 195.846 96.2245 195.846H26.7755Z" fill="#C5CFD6"/>
<path fill-rule="evenodd" clip-rule="evenodd" d="M205.969 271.989C189.472 251.844 178.31 236.909 172.482 227.185C162.504 210.535 154.337 195.719 151.76 190.059C145.615 176.564 165.908 170.244 170.501 176.539C177.453 186.067 192.299 216.047 215.04 266.481L205.969 271.989Z" fill="#B28B67"/>
<path fill-rule="evenodd" clip-rule="evenodd" d="M172.165 266.132L141.464 188.848C134.897 174.76 166.608 165.499 171.434 172.056C182.39 186.941 208.43 245.66 211.695 250.095L172.165 266.132Z" fill="#2F3676"/>
<path fill-rule="evenodd" clip-rule="evenodd" d="M90.3944 250.633C96.375 241.909 118.128 212.559 129.977 200.415C133.382 196.926 136.704 193.576 139.846 190.455C149.186 181.178 167.785 196.771 158.462 205.221C135.245 226.265 101.371 254.674 98.5405 257.207C94.5738 260.757 86.6358 256.115 90.3944 250.633Z" fill="#915B3C"/>
<path fill-rule="evenodd" clip-rule="evenodd" d="M91.7938 246.692C89.7336 248.388 88.3934 249.773 87.7731 250.848C87.0187 252.154 86.1354 254.187 85.1234 256.945C86.6393 257.82 100.263 265.686 125.994 280.542C129.083 277.644 129.565 275.394 127.438 273.793C125.311 272.192 123.556 270.842 122.173 269.742L108.066 250.306C107.795 249.932 107.272 249.849 106.898 250.121C106.891 250.125 106.885 250.13 106.879 250.135L103.947 252.392C101.258 252.157 99.2517 251.657 97.9273 250.893C96.8513 250.272 95.6162 248.979 94.222 247.015L94.222 247.015C93.6869 246.262 92.6423 246.084 91.8886 246.619C91.8562 246.642 91.8245 246.667 91.7938 246.692Z" fill="#E4E4E4"/>
<path fill-rule="evenodd" clip-rule="evenodd" d="M198.873 268.978C197.937 271.477 197.469 273.347 197.469 274.587C197.469 276.096 197.72 278.298 198.223 281.193C199.973 281.193 215.704 281.193 245.416 281.193C246.643 277.139 245.935 274.95 243.292 274.626C240.65 274.303 238.455 274.011 236.707 273.751L214.772 263.972C214.35 263.784 213.856 263.973 213.667 264.396C213.664 264.403 213.661 264.41 213.658 264.417L212.248 267.838C209.802 268.979 207.814 269.549 206.285 269.549C205.043 269.549 203.327 269.048 201.137 268.044L201.137 268.044C200.297 267.659 199.304 268.028 198.919 268.868C198.902 268.904 198.887 268.941 198.873 268.978Z" fill="#E4E4E4"/>
<path fill-rule="evenodd" clip-rule="evenodd" d="M130.414 192.708C104.897 188.551 87.8046 185.708 79.1381 184.18C54.4351 179.824 47.2315 166.531 51.4906 137.527H97.0055C103.029 139.267 128.196 150.024 172.507 169.8C180.479 173.757 178.994 185.426 177.537 189.271C177.478 189.428 164.038 212.458 137.217 258.361L99.9842 234.642L130.484 195.503C131.29 193.881 131.267 192.949 130.414 192.708Z" fill="#5C63AB"/>
<path fill-rule="evenodd" clip-rule="evenodd" d="M133.695 126.574L160.385 146.173C167.624 148.127 173.672 150.557 178.529 153.464C179.676 154.509 181.063 156.627 176.305 156.261C171.547 155.895 166.525 155.724 165.869 157.347C165.212 158.97 168.092 160.911 166.764 163.1C165.88 164.56 161.7 160.9 154.225 152.119L127.794 141.159L133.695 126.574ZM31.2169 127.25L48.7025 127.319C37.906 162.172 32.0774 180.665 31.2169 182.797C29.2808 187.596 33.3779 194.903 35.1301 198.831C29.4235 201.384 30.0315 191.927 22.8328 195.276C16.2622 198.333 11.264 203.872 3.67255 199.188C2.73923 198.612 1.71647 196.444 4.1876 194.749C10.3441 190.528 19.216 183.14 20.4147 180.708C22.0494 177.392 25.6501 159.572 31.2169 127.25Z" fill="#915B3C"/>
<path fill-rule="evenodd" clip-rule="evenodd" d="M80.9076 53.8787L88.143 52.6377C114.988 75.8281 126.015 120.38 158.92 143.981L151 153.798C93.9147 146.73 79.7657 92.3876 80.9076 53.8787Z" fill="#E87613"/>
<path fill-rule="evenodd" clip-rule="evenodd" d="M49.3672 144.805C78.3782 144.805 99.7182 144.805 113.387 144.805C116.312 144.805 115.761 140.581 115.338 138.449C110.458 113.849 91.4058 87.3311 91.4058 52.3131L72.9395 49.4174C57.6655 73.9826 52.3835 104.227 49.3672 144.805Z" fill="#DDE3E9"/>
<path fill-rule="evenodd" clip-rule="evenodd" d="M49.8824 73.5638C47.2004 72.7928 45.0766 70.9948 43.5108 68.1695C36.7614 55.9908 39.1989 49.2855 46.412 47.0814C53.625 44.8773 60.0575 49.4173 71.5498 49.4173C72.1749 49.4173 72.7474 49.4565 73.2674 49.5349L79.0483 49.8648C95.6344 106.077 100.209 143.581 92.7713 162.377H42.3828C39.3973 169.338 36.5404 175.195 33.8122 179.948H20.0823C18.7901 138.167 28.7235 102.706 49.8824 73.5638Z" fill="#FF9B21"/>
<path fill-rule="evenodd" clip-rule="evenodd" d="M53.3553 133.507C54.94 146.766 57.5157 156.389 61.0823 162.376H42.3828C45.8653 154.256 49.5228 144.633 53.3553 133.507V133.507Z" fill="black" fill-opacity="0.1"/>
</svg>
