<svg width="265" height="415" viewBox="0 0 265 415" fill="none" xmlns="http://www.w3.org/2000/svg">
<path fill-rule="evenodd" clip-rule="evenodd" d="M132.584 38.5459C137.39 32.9052 140.643 25.9923 140.099 18.2463C138.533 -4.07215 107.465 0.837621 101.422 12.1021C95.3783 23.3665 96.0964 51.9397 103.907 53.953C107.022 54.7559 113.657 52.7891 120.411 48.7185L116.172 78.7077H141.201L132.584 38.5459Z" fill="#FF8C4C"/>
<path fill-rule="evenodd" clip-rule="evenodd" d="M119.159 20.7112C118.201 34.0573 115.666 40.7304 111.555 40.7304C105.389 40.7304 100.157 36.8157 97.4515 36.8157C95.4791 36.8157 95.9195 39.2839 97.2269 41.1139C98.3055 42.6237 103.558 44.079 103.558 46.4197C103.558 48.7604 99.4082 46.9496 99.4082 48.3378C99.4082 50.6341 98.6788 54.9516 102.664 54.9516C106.698 54.9516 118.262 53.4817 120.244 47.4954C121.523 43.632 122.35 35.6263 122.725 23.4783C122.97 23.4492 123.219 23.4342 123.471 23.4342C126.927 23.4342 129.729 26.2358 129.729 29.6916C129.729 31.446 129.007 33.0317 127.844 34.168C129.291 36.2116 130.914 38.3465 132.774 40.5494C139.759 36.3585 144.942 24.0902 138.113 12.3048C136.225 6.53125 131.952 3.44741 126.905 2.01548C122.817 0.30535 118.573 0.112531 114.99 1.13774C107.968 1.74011 101.697 3.88153 99.9194 5.15328C99.9194 11.802 101.208 13.7746 112.211 13.6007C114.915 15.0287 116.994 17.4875 119.159 20.7112Z" fill="#191847"/>
<path fill-rule="evenodd" clip-rule="evenodd" d="M143.207 165.01L92.02 294.566L57.6887 404.094H44.132L96.617 165.01L143.207 165.01Z" fill="#FFA982"/>
<path fill-rule="evenodd" clip-rule="evenodd" d="M153.514 165.01C154.059 210.537 162.008 271.831 163.278 274.669C164.125 276.561 193.353 300.62 250.963 346.847L241.626 356.839C173.651 317.205 138.091 294.746 134.946 289.46C130.228 281.53 114.867 208.565 102.534 165.01H153.514Z" fill="#FF8C4C"/>
<path fill-rule="evenodd" clip-rule="evenodd" d="M252.213 343.512C255.349 344.62 257.509 345.671 258.693 346.665C260.134 347.874 262.035 349.878 264.396 352.677C262.994 354.348 250.39 369.368 226.586 397.737C221.733 395.659 220.21 393.23 222.018 390.448C223.826 387.666 225.306 385.337 226.458 383.459L234.695 354.682C234.853 354.128 235.431 353.807 235.984 353.966C235.994 353.969 236.003 353.971 236.013 353.974L240.408 355.368C243.457 353.947 245.594 352.507 246.82 351.046C247.815 349.86 248.711 347.82 249.506 344.925L249.506 344.925C249.812 343.815 250.96 343.162 252.071 343.467C252.118 343.48 252.166 343.495 252.213 343.512Z" fill="#E4E4E4"/>
<path fill-rule="evenodd" clip-rule="evenodd" d="M63.2401 399.038C64.4069 402.152 64.9902 404.483 64.9902 406.029C64.9902 407.91 64.6769 410.654 64.0503 414.262C61.8687 414.262 42.2616 414.262 5.22913 414.262C3.70058 409.209 4.58295 406.481 7.87624 406.078C11.1695 405.675 13.9053 405.311 16.0836 404.986L43.4232 392.798C43.9492 392.564 44.5658 392.8 44.8003 393.326C44.8043 393.335 44.8082 393.344 44.812 393.353L46.5693 397.616C49.6181 399.039 52.0955 399.75 54.0016 399.75C55.5502 399.75 57.6889 399.124 60.4177 397.874L60.4177 397.874C61.4648 397.393 62.7029 397.853 63.1829 398.9C63.2036 398.946 63.2227 398.991 63.2401 399.038Z" fill="#E4E4E4"/>
<path fill-rule="evenodd" clip-rule="evenodd" d="M108.792 392.813L44.3362 385.818L92.1055 165.01H149.836L108.792 392.813Z" fill="#69A1AC"/>
<path fill-rule="evenodd" clip-rule="evenodd" d="M237.631 330.727L195.352 380.771C150.82 332.134 124.858 300.399 117.466 285.565C110.073 270.731 103.428 230.546 97.5294 165.01H162.523C165.745 222.665 167.917 252.835 169.039 255.518C170.161 258.201 193.025 283.27 237.631 330.727Z" fill="#89C5CC"/>
<path fill-rule="evenodd" clip-rule="evenodd" d="M51.9829 152.077L22.4398 180.898C13.8439 184.564 6.80076 188.613 1.31041 193.044C0.0757105 194.533 -1.26847 197.387 4.54073 196.11C10.3499 194.833 16.5177 193.751 17.6096 195.64C18.7014 197.529 15.4842 200.424 17.5021 202.897C18.8473 204.545 23.3714 199.302 31.0743 187.168L61.7952 169.056L51.9829 152.077ZM196.448 125.994L173.612 126.08C191.005 182.431 200.238 211.936 201.31 214.594C203.723 220.575 198.617 229.683 196.433 234.577C203.545 237.76 202.788 225.973 211.76 230.148C219.949 233.958 226.179 240.861 235.641 235.023C236.804 234.305 238.079 231.603 234.999 229.491C227.326 224.229 216.268 215.021 214.774 211.99C212.736 207.856 206.628 179.191 196.448 125.994Z" fill="#FF8C4C"/>
<path fill-rule="evenodd" clip-rule="evenodd" d="M126.861 61.2117L117.843 59.6649C103.637 109.882 30.646 144.112 26.1651 162.885C24.5219 169.769 29.4766 173.249 26.9172 175.346L38.6389 183.927C40.6239 181.611 44.8598 185.848 53.7057 182.884C62.5517 179.921 126.861 120.673 126.861 61.2117Z" fill="#191847"/>
<path fill-rule="evenodd" clip-rule="evenodd" d="M111.69 67.8879C112.73 134.372 74.2973 151.331 82.858 178.002C89.9273 200.026 157.592 223.702 169.301 202.113C174.04 193.374 176.191 182.805 176.435 171.314C179.427 180.142 181.794 187.742 183.535 194.114C186.539 205.106 198.182 206.853 198.182 211.087L213.523 206.853C212.483 201.1 219.714 198.299 217.775 185.446C209.087 127.861 185.744 86.1183 147.745 60.2197L147.352 54.5979C147.191 52.2996 145.197 50.5667 142.899 50.7274L114.81 52.6917C112.511 52.8524 110.778 54.8458 110.939 57.1441L111.69 67.8879Z" fill="#2F3676"/>
</svg>
