<svg width="97" height="97" viewBox="0 0 97 97" fill="none" xmlns="http://www.w3.org/2000/svg">
<path d="M61.6311 13.1939L55.3507 11.6862L56.3537 7.51686L61.77 8.80919L62.1557 7.22455L56.7394 5.91683L57.6653 2.13214L63.8686 3.62448L64.2543 2.02445L56.0296 0.0397949L52.928 12.7939L61.2453 14.8093L61.6311 13.1939Z" fill="#1B1B1B"/>
<path d="M72.031 21.271L72.0002 13.317L78.9441 10.1016L77.0924 8.90154L71.9539 11.3939L72.0927 5.70148L70.1021 4.40915L70.0559 12.0554L62.7879 15.317L64.655 16.5325L70.1021 13.9786L70.025 19.9787L72.031 21.271Z" fill="#1B1B1B"/>
<path d="M74.995 24.7941L78.9299 21.7633L80.4576 23.7325C81.3526 24.9018 82.3556 25.5633 83.4204 25.7326C84.4851 25.9018 85.519 25.6095 86.522 24.8403C87.525 24.071 88.0651 23.1479 88.1577 22.0864C88.2503 21.0094 87.849 19.9017 86.9386 18.7325L84.1456 15.1324L73.7297 23.1633L74.995 24.8095V24.7941ZM84.0993 17.7632L85.5807 19.6709C86.1671 20.4248 86.3985 21.1017 86.2751 21.6864C86.1516 22.271 85.8122 22.7787 85.2412 23.2095C84.6703 23.6402 84.0993 23.8556 83.4975 23.8402C82.8957 23.8249 82.2939 23.4402 81.7075 22.671L80.2261 20.7633L84.0993 17.7786V17.7632Z" fill="#1B1B1B"/>
<path d="M83.1413 40.7021L84.6998 40.1637L82.7092 34.4251L93.6035 30.6866L92.9245 28.7173L80.4717 33.0097L83.1413 40.7021Z" fill="#1B1B1B"/>
<path d="M95.3785 44.2252C94.2829 43.1483 92.6935 42.5944 90.6566 42.5637H89.8233C87.771 42.5175 86.1816 43.0252 85.0397 44.056C83.8978 45.0868 83.3115 46.4407 83.296 48.1022C83.2806 49.7638 83.8053 51.1331 84.9163 52.21C86.0119 53.287 87.6013 53.8408 89.6382 53.8716H90.4714C92.5238 53.9177 94.1132 53.41 95.2551 52.3639C96.3969 51.3177 96.9833 49.9638 96.9987 48.3176C97.0296 46.6561 96.4895 45.2868 95.3785 44.2252ZM94.036 50.8561C93.2182 51.4869 92.0608 51.7946 90.5795 51.7792H89.5919C88.1105 51.7331 86.9686 51.3946 86.1662 50.7331C85.3638 50.0715 84.978 49.21 84.9934 48.133C85.0089 47.0561 85.4255 46.2099 86.2588 45.5791C87.0766 44.9483 88.2339 44.6406 89.7153 44.6714H90.7029C92.1843 44.7176 93.3262 45.056 94.1286 45.7176C94.931 46.3791 95.3168 47.2407 95.3013 48.3176C95.2859 49.3946 94.8693 50.2407 94.036 50.8715V50.8561Z" fill="#1B1B1B"/>
<path d="M81.8459 58.9025L86.645 60.8256L85.7654 63.0256C85.7654 63.0256 85.7191 63.1641 85.7037 63.2256L79.8862 63.8102L79.022 65.9641L85.3179 65.2564C85.3179 65.718 85.3796 66.1488 85.5339 66.5488C85.9197 67.5642 86.6758 68.2873 87.8023 68.7488C88.9442 69.2104 89.978 69.195 90.9348 68.718C91.8915 68.2411 92.6476 67.3334 93.1877 65.9949L94.8542 61.8717L82.6329 56.9793L81.8613 58.9025H81.8459ZM87.2776 63.5949L88.1572 61.4256L92.555 63.1795L91.6754 65.3487C91.3205 66.2257 90.873 66.7488 90.333 66.918C89.7929 67.1026 89.1911 67.0565 88.5584 66.8103C87.9257 66.5488 87.4628 66.1641 87.1696 65.6564C86.8918 65.1487 86.9227 64.4564 87.2622 63.5795L87.2776 63.5949Z" fill="#1B1B1B"/>
<path d="M71.7541 74.472L73.004 75.549L77.263 70.7027L80.5035 73.5181L76.8463 77.7028L78.0808 78.7798L81.738 74.5951L84.6853 77.1644L80.488 81.9491L81.7225 83.0414L87.2931 76.6874L77.3864 68.0565L71.7541 74.472Z" fill="#1B1B1B"/>
<path d="M60.5975 80.7644C58.9773 81.3182 57.8045 82.3182 57.0947 83.7337C56.3849 85.1491 56.3232 86.7491 56.9558 88.5491L57.2336 89.3338C57.8662 91.1338 58.9001 92.3492 60.3506 93.0107C61.8012 93.6723 63.3288 93.7184 64.9491 93.1646L68.8068 91.8261L64.4861 79.4259L60.6284 80.7644H60.5975ZM64.3936 91.6107C63.2671 91.9953 62.2487 91.9492 61.3228 91.4415C60.3969 90.9338 59.6871 90.0107 59.2242 88.6568L58.9464 87.8414C58.4681 86.4875 58.4526 85.3337 58.8538 84.3644C59.2705 83.3952 60.042 82.7182 61.1531 82.3182L63.0202 81.6721L66.2607 90.9645L64.3936 91.6107Z" fill="#1B1B1B"/>
<path d="M51.3612 82.8215L49.2812 82.9367L50.0114 96.0398L52.0914 95.9246L51.3612 82.8215Z" fill="#1B1B1B"/>
<path d="M42.08 87.6722L39.75 87.1799C39.75 87.1799 39.6111 87.1645 39.5339 87.1491L37.96 81.5336L35.6916 81.0567L37.4816 87.1183C37.0341 87.1952 36.6175 87.3337 36.2471 87.5491C35.3213 88.103 34.7195 88.9645 34.4726 90.1491C34.2257 91.3492 34.4108 92.3646 35.0435 93.2261C35.6762 94.0877 36.6946 94.6569 38.1297 94.9646L42.4967 95.8877L45.2125 83.0413L43.1756 82.6105L42.1109 87.6568L42.08 87.6722ZM40.7684 93.8877L38.4846 93.4107C37.5588 93.2107 36.9724 92.8723 36.6946 92.3646C36.4169 91.8569 36.3551 91.2722 36.494 90.6107C36.6329 89.9338 36.9415 89.4261 37.389 89.0568C37.8365 88.6876 38.5309 88.5953 39.4568 88.7953L41.7406 89.2722L40.7684 93.8877Z" fill="#1B1B1B"/>
<path d="M25.1374 76.795L30.6617 80.1489L28.4242 83.8106L23.6714 80.9336L22.8227 82.3336L27.5601 85.2106L25.5386 88.5337L20.076 85.226L19.2119 86.6414L26.449 91.0261L33.3004 79.8259L26.0015 75.3796L25.1374 76.795Z" fill="#1B1B1B"/>
<path d="M22.004 73.4873C22.22 71.9642 21.8188 70.5796 20.8003 69.3026C19.7973 68.0565 18.6863 67.3795 17.4827 67.2411C16.2636 67.1026 15.1372 67.3949 14.1033 68.1026L13.9798 68.1795L15.2915 69.8103L15.4149 69.7334C16.0785 69.2873 16.7729 69.1026 17.4981 69.1642C18.2234 69.2257 18.8869 69.6257 19.4887 70.3796C20.1368 71.1796 20.3528 72.0873 20.1214 73.1027C19.8899 74.1181 19.2109 75.072 18.0536 75.9951L17.2512 76.6412C16.0167 77.6413 14.8903 78.1182 13.9027 78.072C12.9151 78.0413 12.0973 77.6259 11.4646 76.8259C10.8165 76.0258 10.5387 75.272 10.6159 74.5489C10.693 73.8412 11.0634 73.2258 11.6961 72.7181L11.8041 72.6258L10.4924 70.995L10.3844 71.0873C9.39684 71.8719 8.85675 72.8873 8.76417 74.1335C8.67158 75.3797 9.11908 76.6259 10.1067 77.872C11.1251 79.1336 12.4059 79.8259 13.9335 79.949C15.4612 80.0721 17.0352 79.4875 18.64 78.2105L19.2881 77.6874C20.8775 76.4105 21.7879 75.0104 22.004 73.5027V73.4873Z" fill="#1B1B1B"/>
<path d="M15.2605 59.964L14.597 58.0101L3.68728 61.6564L2.37565 57.7486L0.801688 58.2717L4.08849 68.0411L5.64702 67.518L4.33538 63.6102L15.2605 59.964Z" fill="#1B1B1B"/>
<path d="M13.1335 49.1628L0 50.0348L0.138424 52.1072L13.272 51.2352L13.1335 49.1628Z" fill="#1B1B1B"/>
<path d="M5.895 44.1022L6.71284 44.2868C8.71887 44.7329 10.37 44.5637 11.697 43.7791C13.0241 42.9944 13.8728 41.7944 14.2277 40.179C14.5981 38.5636 14.3357 37.1174 13.487 35.8251C12.6229 34.5481 11.1878 33.6866 9.19723 33.2404L8.37939 33.0558C6.37336 32.6096 4.72224 32.7789 3.39518 33.5635C2.06811 34.3481 1.21941 35.5635 0.864493 37.1789C0.49415 38.7944 0.756476 40.2405 1.60518 41.5175C2.46932 42.7944 3.9044 43.656 5.895 44.1022ZM2.51561 37.5482C2.74707 36.502 3.33345 35.7481 4.27474 35.302C5.2006 34.8404 6.40422 34.7789 7.8393 35.102L8.81145 35.3174C10.262 35.6405 11.3113 36.2097 11.9594 37.0097C12.6075 37.8251 12.8081 38.7482 12.5766 39.7944C12.3452 40.8406 11.7588 41.5944 10.8329 42.0406C9.90705 42.4867 8.70344 42.5637 7.26835 42.2406L6.2962 42.0252C4.84569 41.7021 3.79638 41.1329 3.14828 40.3329C2.50018 39.5328 2.28414 38.5944 2.53104 37.5636L2.51561 37.5482Z" fill="#1B1B1B"/>
<path d="M17.7299 30.1327L10.6625 25.1326C10.5082 25.0249 10.3385 24.9018 10.1687 24.7788C9.99898 24.6557 9.81381 24.548 9.6595 24.4403L9.69036 24.3941C9.8601 24.4249 10.0453 24.4557 10.2459 24.4711C10.4465 24.5018 10.6471 24.5172 10.8785 24.5326L21.2945 25.148L22.5752 23.348L11.8353 15.7478L10.7088 17.3171L17.8071 22.3479C17.9614 22.4556 18.1311 22.5787 18.3009 22.6864C18.4706 22.8095 18.6403 22.9172 18.7946 23.0249L18.7484 23.0864C18.5786 23.0403 18.3934 23.0095 18.1928 22.9941C17.9922 22.9787 17.7916 22.948 17.5756 22.948L7.12882 22.3479L5.86347 24.1326L16.6034 31.7327L17.7299 30.1635V30.1327Z" fill="#1B1B1B"/>
<path d="M21.7733 14.4708C22.622 14.5939 23.7485 14.4401 25.1527 13.9785C26.4798 13.5477 27.4365 13.3477 28.0074 13.3631C28.5784 13.3785 29.0105 13.64 29.3345 14.117C29.674 14.6247 29.7511 15.1631 29.5505 15.7324C29.3654 16.3016 28.9024 16.8401 28.1618 17.3324C27.4211 17.8247 26.7421 18.0555 26.1094 18.0247C25.4922 17.994 24.9675 17.6555 24.5663 17.0401L24.4892 16.917L22.7455 18.0709L22.8381 18.194C23.517 19.2094 24.4275 19.7632 25.5693 19.8402C26.7112 19.9171 27.884 19.5478 29.1185 18.7324C30.353 17.917 31.1399 16.9786 31.4794 15.917C31.8189 14.8554 31.68 13.8554 31.0473 12.9016C30.4147 11.9785 29.6586 11.44 28.7636 11.3169C27.8686 11.1785 26.7267 11.3477 25.3533 11.7938C23.9954 12.24 23.0695 12.44 22.5603 12.4246C22.0511 12.4246 21.6344 12.1785 21.3413 11.7323C21.0172 11.2554 20.9401 10.7631 21.0944 10.2554C21.2487 9.74765 21.6807 9.25534 22.3906 8.79379C23.1158 8.31686 23.7639 8.13224 24.3349 8.22455C24.9212 8.31686 25.3842 8.63994 25.7545 9.17841L25.8317 9.28611L27.5599 8.13224L27.4828 8.00916C26.8501 7.07068 25.986 6.53221 24.8904 6.39375C23.7948 6.27067 22.6375 6.59375 21.4647 7.37838C20.2765 8.16301 19.5358 9.07072 19.2272 10.0861C18.9186 11.1169 19.0729 12.0708 19.6593 12.9477C20.2302 13.8093 20.9555 14.317 21.8042 14.4401L21.7733 14.4708Z" fill="#1B1B1B"/>
</svg>
